<svg xmlns="http://www.w3.org/2000/svg" viewBox="0 0 89 43" width="89" height="43">
	<style>
		tspan { white-space:pre }
		.shp0 { fill: #333333 } 
	</style>
	<path id="Logo" class="shp0" d="M15.82 19.84L6.73 19.84L6.73 2.19L1.26 2.19L1.26 24L15.82 24L15.82 19.84ZM36.37 4.77C34.48 2.75 31.9 1.73 28.62 1.73C25.33 1.73 22.75 2.75 20.87 4.79C19 6.82 18.06 9.6 18.06 13.1C18.06 16.58 19 19.34 20.87 21.39C22.75 23.43 25.33 24.45 28.62 24.45C31.9 24.45 34.48 23.44 36.37 21.42C38.25 19.4 39.2 16.63 39.2 13.1C39.2 9.58 38.25 6.8 36.37 4.77ZM33.16 16.4C32.91 17.25 32.55 17.99 32.08 18.62C31.64 19.21 31.11 19.64 30.51 19.92C29.9 20.2 29.28 20.34 28.63 20.34C28 20.34 27.38 20.21 26.79 19.95C26.19 19.69 25.66 19.26 25.19 18.65C24.73 18.06 24.37 17.32 24.11 16.43C23.84 15.55 23.71 14.44 23.71 13.1C23.71 11.8 23.85 10.68 24.13 9.75C24.41 8.81 24.77 8.06 25.22 7.49C25.73 6.88 26.26 6.45 26.8 6.21C27.35 5.97 27.96 5.85 28.63 5.85C29.27 5.85 29.88 5.98 30.47 6.24C31.06 6.5 31.59 6.92 32.06 7.52C32.51 8.11 32.87 8.86 33.14 9.77C33.41 10.68 33.54 11.79 33.54 13.09C33.54 14.45 33.41 15.56 33.16 16.4ZM62 12.02L52.46 12.02L52.46 16.1L56.7 16.1L56.7 20.38C56.5 20.4 56.27 20.42 56.01 20.43C55.75 20.44 55.52 20.44 55.32 20.44C53.1 20.44 51.36 19.84 50.08 18.62C48.8 17.41 48.16 15.53 48.16 12.98C48.16 11.79 48.33 10.75 48.66 9.85C49 8.95 49.46 8.21 50.03 7.62C50.64 7.02 51.33 6.57 52.1 6.28C52.87 5.98 53.72 5.84 54.66 5.84C55.46 5.84 56.22 5.95 56.94 6.17C57.66 6.4 58.29 6.67 58.84 6.98C59.3 7.24 59.79 7.56 60.28 7.94C60.77 8.31 61.15 8.6 61.41 8.81L61.91 8.81L61.91 3.7C60.69 3.1 59.51 2.63 58.37 2.28C57.22 1.94 55.74 1.76 53.91 1.76C50.38 1.76 47.59 2.79 45.56 4.85C43.52 6.92 42.5 9.65 42.5 13.07C42.5 16.71 43.52 19.51 45.56 21.49C47.59 23.47 50.33 24.45 53.75 24.45C55.24 24.45 56.74 24.27 58.27 23.9C59.8 23.53 61.04 23.15 62 22.75L62 12.02ZM84.47 4.77C82.59 2.75 80 1.73 76.72 1.73C73.43 1.73 70.85 2.75 68.97 4.79C67.1 6.82 66.16 9.6 66.16 13.1C66.16 16.58 67.1 19.34 68.97 21.39C70.85 23.43 73.43 24.45 76.72 24.45C80 24.45 82.59 23.44 84.47 21.42C86.36 19.4 87.3 16.63 87.3 13.1C87.3 9.58 86.36 6.8 84.47 4.77ZM81.26 16.4C81.01 17.25 80.65 17.99 80.18 18.62C79.74 19.21 79.22 19.64 78.61 19.92C78.01 20.2 77.38 20.34 76.74 20.34C76.1 20.34 75.49 20.21 74.89 19.95C74.3 19.69 73.76 19.26 73.3 18.65C72.84 18.06 72.47 17.32 72.21 16.43C71.95 15.55 71.82 14.44 71.82 13.1C71.82 11.8 71.95 10.68 72.23 9.75C72.51 8.81 72.88 8.06 73.32 7.49C73.83 6.88 74.36 6.45 74.91 6.21C75.45 5.97 76.06 5.85 76.74 5.85C77.37 5.85 77.99 5.98 78.58 6.24C79.17 6.5 79.7 6.92 80.17 7.52C80.61 8.11 80.97 8.86 81.24 9.77C81.51 10.68 81.64 11.79 81.64 13.09C81.64 14.45 81.52 15.56 81.26 16.4ZM10.53 33.07L9.17 39.4L7.17 33.07L6.04 33.07L4.1 39.4L2.66 33.07L1.22 33.07L3.31 41.25L4.58 41.25L6.57 34.94L8.57 41.25L9.84 41.25L11.91 33.07L10.53 33.07ZM14.31 33.07L12.93 33.07L12.93 41.25L14.31 41.25L14.31 33.07ZM14.4 30.27L12.84 30.27L12.84 31.7L14.4 31.7L14.4 30.27ZM17.47 29.85L16.1 29.85L16.1 41.25L17.47 41.25L17.47 29.85ZM20.64 29.85L19.26 29.85L19.26 41.25L20.64 41.25L20.64 29.85ZM32.19 39.49C31.79 39.99 31.23 40.24 30.53 40.24C30.21 40.24 29.91 40.2 29.64 40.13C29.38 40.06 29.07 39.94 28.72 39.77L28.72 35.08C29.03 34.81 29.38 34.59 29.77 34.42C30.15 34.24 30.53 34.15 30.9 34.15C31.56 34.15 32.04 34.41 32.34 34.91C32.64 35.42 32.79 36.16 32.79 37.13C32.79 38.21 32.59 38.99 32.19 39.49ZM33.41 33.95C32.88 33.21 32.15 32.84 31.23 32.84C30.71 32.84 30.26 32.94 29.85 33.15C29.44 33.35 29.07 33.61 28.72 33.93L28.72 29.85L27.34 29.85L27.34 41.25L28.63 41.25L28.72 40.87C29.03 41.05 29.34 41.2 29.66 41.31C29.97 41.42 30.35 41.48 30.79 41.48C31.77 41.48 32.58 41.07 33.23 40.25C33.88 39.44 34.21 38.36 34.21 37.02C34.21 35.72 33.94 34.69 33.41 33.95ZM40.01 41.38C40.23 41.34 40.47 41.29 40.74 41.21C40.93 41.16 41.15 41.09 41.39 40.99C41.62 40.89 41.82 40.82 41.99 40.75L41.99 39.25L41.91 39.25C41.79 39.34 41.65 39.44 41.48 39.55C41.31 39.65 41.1 39.76 40.85 39.87C40.62 39.98 40.35 40.07 40.06 40.14C39.77 40.21 39.48 40.24 39.17 40.24C38.33 40.24 37.67 39.99 37.19 39.48C36.71 38.98 36.47 38.25 36.47 37.3L42.14 37.3L42.14 36.56C42.14 35.9 42.06 35.35 41.91 34.9C41.75 34.44 41.52 34.06 41.23 33.75C40.94 33.44 40.6 33.21 40.21 33.06C39.82 32.92 39.37 32.84 38.86 32.84C37.73 32.84 36.82 33.24 36.12 34.02C35.42 34.81 35.07 35.87 35.07 37.21C35.07 38.56 35.43 39.6 36.15 40.34C36.87 41.07 37.88 41.44 39.19 41.44C39.52 41.44 39.79 41.42 40.01 41.38ZM36.47 36.25C36.5 35.9 36.57 35.6 36.68 35.34C36.78 35.07 36.94 34.84 37.14 34.62C37.35 34.41 37.59 34.25 37.84 34.14C38.1 34.03 38.41 33.98 38.78 33.98C39.15 33.98 39.46 34.03 39.71 34.14C39.96 34.25 40.17 34.4 40.33 34.61C40.48 34.79 40.59 35.02 40.67 35.29C40.75 35.56 40.79 35.88 40.8 36.25L36.47 36.25ZM54.65 35.94C54.65 34.93 54.42 34.17 53.97 33.64C53.51 33.11 52.88 32.84 52.08 32.84C51.63 32.84 51.21 32.94 50.81 33.13C50.41 33.33 50.01 33.61 49.6 33.98L49.6 29.85L48.22 29.85L48.22 41.25L49.6 41.25L49.6 35.14C49.94 34.85 50.3 34.61 50.66 34.43C51.03 34.24 51.38 34.15 51.72 34.15C52.07 34.15 52.34 34.2 52.54 34.3C52.74 34.4 52.9 34.56 53.01 34.76C53.11 34.96 53.18 35.22 53.22 35.54C53.25 35.87 53.27 36.22 53.27 36.59L53.27 41.25L54.65 41.25L54.65 35.94ZM60.82 41.38C61.04 41.34 61.28 41.29 61.55 41.21C61.74 41.16 61.96 41.09 62.2 40.99C62.44 40.89 62.64 40.82 62.8 40.75L62.8 39.25L62.72 39.25C62.6 39.34 62.46 39.44 62.29 39.55C62.12 39.65 61.91 39.76 61.66 39.87C61.43 39.98 61.16 40.07 60.87 40.14C60.58 40.21 60.29 40.24 59.98 40.24C59.14 40.24 58.48 39.99 58 39.48C57.52 38.98 57.28 38.25 57.28 37.3L62.95 37.3L62.95 36.56C62.95 35.9 62.87 35.35 62.72 34.9C62.56 34.44 62.34 34.06 62.04 33.75C61.75 33.44 61.41 33.21 61.02 33.06C60.63 32.92 60.18 32.84 59.67 32.84C58.54 32.84 57.63 33.24 56.93 34.02C56.23 34.81 55.88 35.87 55.88 37.21C55.88 38.56 56.24 39.6 56.96 40.34C57.68 41.07 58.7 41.44 60 41.44C60.33 41.44 60.61 41.42 60.82 41.38ZM57.28 36.25C57.31 35.9 57.38 35.6 57.49 35.34C57.59 35.07 57.75 34.84 57.96 34.62C58.17 34.41 58.4 34.25 58.66 34.14C58.91 34.03 59.22 33.98 59.59 33.98C59.96 33.98 60.27 34.03 60.52 34.14C60.77 34.25 60.98 34.4 61.14 34.61C61.29 34.79 61.4 35.02 61.48 35.29C61.56 35.56 61.6 35.88 61.61 36.25L57.28 36.25ZM68.63 33.11C68.54 33.1 68.46 33.09 68.39 33.08C68.32 33.07 68.22 33.07 68.07 33.07C67.72 33.07 67.36 33.16 66.99 33.34C66.61 33.53 66.17 33.84 65.67 34.28L65.67 33.07L64.29 33.07L64.29 41.25L65.67 41.25L65.67 35.44C66 35.12 66.35 34.89 66.71 34.72C67.08 34.56 67.45 34.48 67.82 34.48C67.98 34.48 68.12 34.49 68.23 34.49C68.35 34.5 68.45 34.52 68.56 34.55L68.63 34.55L68.63 33.11ZM73.96 41.38C74.18 41.34 74.42 41.29 74.69 41.21C74.88 41.16 75.09 41.09 75.33 40.99C75.57 40.89 75.77 40.82 75.93 40.75L75.93 39.25L75.85 39.25C75.74 39.34 75.6 39.44 75.43 39.55C75.26 39.65 75.05 39.76 74.8 39.87C74.56 39.98 74.3 40.07 74.01 40.14C73.72 40.21 73.42 40.24 73.12 40.24C72.28 40.24 71.62 39.99 71.14 39.48C70.66 38.98 70.42 38.25 70.42 37.3L76.09 37.3L76.09 36.56C76.09 35.9 76.01 35.35 75.85 34.9C75.7 34.44 75.47 34.06 75.18 33.75C74.89 33.44 74.54 33.21 74.15 33.06C73.76 32.92 73.31 32.84 72.81 32.84C71.68 32.84 70.77 33.24 70.07 34.02C69.37 34.81 69.02 35.87 69.02 37.21C69.02 38.56 69.38 39.6 70.1 40.34C70.82 41.07 71.83 41.44 73.14 41.44C73.47 41.44 73.74 41.42 73.96 41.38ZM70.42 36.25C70.45 35.9 70.52 35.6 70.62 35.34C70.73 35.07 70.89 34.84 71.09 34.62C71.3 34.41 71.54 34.25 71.79 34.14C72.05 34.03 72.36 33.98 72.73 33.98C73.1 33.98 73.41 34.03 73.66 34.14C73.91 34.25 74.12 34.4 74.28 34.61C74.43 34.79 74.54 35.02 74.62 35.29C74.69 35.56 74.74 35.88 74.75 36.25L70.42 36.25Z" />
</svg>